<svg width="33" height="32" viewBox="0 0 33 32" fill="none" xmlns="http://www.w3.org/2000/svg">
<g id="icon/calendar">
<path id="Vector" fill-rule="evenodd" clip-rule="evenodd" d="M11.15 2.66675C11.7391 2.66675 12.2167 3.14431 12.2167 3.73341V6.66681L21.2812 6.66692V3.73341C21.2812 3.14431 21.7588 2.66675 22.3479 2.66675C22.937 2.66675 23.4146 3.14431 23.4146 3.73341V6.66694L26.349 6.66698C27.6745 6.66699 28.749 7.74151 28.749 9.06698V25.6003C28.749 26.9258 27.6744 28.0003 26.349 28.0003H7.15C5.82452 28.0003 4.75 26.9258 4.75 25.6003V9.06675C4.75 7.74125 5.82453 6.66673 7.15003 6.66675L10.0833 6.66678V3.73341C10.0833 3.14431 10.5609 2.66675 11.15 2.66675ZM7.15 8.80008C7.00273 8.80008 6.88333 8.91947 6.88333 9.06675V12.267H26.6156V9.06698C26.6156 8.9197 26.4962 8.80031 26.349 8.80031L7.15 8.80008ZM6.88333 25.6003V14.4003H26.6156V25.6003C26.6156 25.7476 26.4962 25.867 26.349 25.867H7.15C7.00272 25.867 6.88333 25.7476 6.88333 25.6003ZM10.8854 18.6667C10.149 18.6667 9.55208 19.2637 9.55208 20.0001C9.55208 20.7365 10.149 21.3334 10.8854 21.3334C11.6218 21.3334 12.2188 20.7365 12.2188 20.0001C12.2188 19.2637 11.6218 18.6667 10.8854 18.6667ZM16.75 18.6667C16.0136 18.6667 15.4167 19.2637 15.4167 20.0001C15.4167 20.7365 16.0136 21.3334 16.75 21.3334C17.4864 21.3334 18.0833 20.7365 18.0833 20.0001C18.0833 19.2637 17.4864 18.6667 16.75 18.6667ZM21.2865 20.0001C21.2865 19.2637 21.8834 18.6667 22.6198 18.6667C23.3562 18.6667 23.9531 19.2637 23.9531 20.0001C23.9531 20.7365 23.3562 21.3334 22.6198 21.3334C21.8834 21.3334 21.2865 20.7365 21.2865 20.0001Z" fill="#33363D"/>
</g>
</svg>
