<svg width="33" height="32" viewBox="0 0 33 32" fill="none" xmlns="http://www.w3.org/2000/svg">
<g id="icon/new_folder">
<path id="Vector" fill-rule="evenodd" clip-rule="evenodd" d="M15.35 9.7523L13.1278 7.46659H5.58464C5.29008 7.46659 5.0513 7.70537 5.0513 7.99992V23.9999C5.0513 24.2945 5.29008 24.5332 5.58464 24.5332H26.918C27.2125 24.5332 27.4513 24.2945 27.4513 23.9999V10.2856C27.4513 9.99108 27.2125 9.7523 26.918 9.7523H15.35ZM14.0291 5.33325H5.58464C4.11188 5.33325 2.91797 6.52716 2.91797 7.99992V23.9999C2.91797 25.4727 4.11188 26.6666 5.58464 26.6666H26.918C28.3907 26.6666 29.5846 25.4727 29.5846 23.9999V10.2856C29.5846 8.81288 28.3907 7.61897 26.918 7.61897H16.2513L14.0291 5.33325ZM19.1846 18.3999H16.2513V16.2666H19.1846V13.3333H21.318V16.2666H24.2513V18.3999H21.318V21.3333H19.1846V18.3999Z" fill="#33363D"/>
</g>
</svg>
