<svg width="33" height="32" viewBox="0 0 33 32" fill="none" xmlns="http://www.w3.org/2000/svg">
<g id="icon/map">
<path id="Vector" fill-rule="evenodd" clip-rule="evenodd" d="M28.0162 4.45C28.3093 4.64843 28.4849 4.97933 28.4849 5.33327V24.6666C28.4849 25.1377 28.1759 25.5529 27.7247 25.6883L21.0581 27.6883C20.8476 27.7514 20.6227 27.748 20.4143 27.6785L12.7668 25.1294L6.14055 27.5389C5.27098 27.8552 4.35156 27.2112 4.35156 26.2859V7.99994C4.35156 7.5514 4.63217 7.15078 5.0537 6.99749L12.387 4.33083C12.6132 4.24858 12.8606 4.24524 13.0889 4.32134L20.7182 6.86445L27.0221 4.3429C27.3507 4.21145 27.7231 4.25157 28.0162 4.45ZM6.4849 8.74706L11.6849 6.85615V23.2528L6.4849 25.1437V8.74706ZM19.6849 25.1867L13.8182 23.2311V6.81319L19.6849 8.76875V25.1867ZM21.8182 25.233L26.3516 23.873V6.90878L21.8182 8.72211V25.233Z" fill="#33363D"/>
</g>
</svg>
