<svg width="33" height="32" viewBox="0 0 33 32" fill="none" xmlns="http://www.w3.org/2000/svg">
<g id="icon/identity">
<path id="Vector" fill-rule="evenodd" clip-rule="evenodd" d="M15.0513 12.5333H17.4513V6.13333H15.0513V12.5333ZM14.2513 4C13.5149 4 12.918 4.59695 12.918 5.33333V9.33333H4.2513C3.51492 9.33333 2.91797 9.93029 2.91797 10.6667V28C2.91797 28.7364 3.51492 29.3333 4.2513 29.3333H28.2513C28.9877 29.3333 29.5846 28.7364 29.5846 28V10.6667C29.5846 9.93029 28.9877 9.33333 28.2513 9.33333H19.5846V5.33333C19.5846 4.59695 18.9877 4 18.2513 4H14.2513ZM5.0513 11.4667H12.918V13.3333C12.918 14.0697 13.5149 14.6667 14.2513 14.6667H18.2513C18.9877 14.6667 19.5846 14.0697 19.5846 13.3333V11.4667H27.4513V27.2H5.0513V11.4667ZM12.318 19.8667C13.3121 19.8667 14.118 19.0608 14.118 18.0667C14.118 17.0726 13.3121 16.2667 12.318 16.2667C11.3239 16.2667 10.518 17.0726 10.518 18.0667C10.518 19.0608 11.3239 19.8667 12.318 19.8667ZM24.2513 19.7333H18.918V17.6H24.2513V19.7333ZM8.2513 22.8C8.2513 21.6954 9.14673 20.8 10.2513 20.8H12.2513H14.2513C15.3559 20.8 16.2513 21.6954 16.2513 22.8V24H8.2513V22.8ZM24.2513 23.7333H18.918V21.6H24.2513V23.7333Z" fill="#33363D"/>
</g>
</svg>
