<svg width="33" height="32" viewBox="0 0 33 32" fill="none" xmlns="http://www.w3.org/2000/svg">
<g id="icon/location_away">
<path id="Vector" fill-rule="evenodd" clip-rule="evenodd" d="M22.1336 10.6947L13.5836 3.97681L3.18359 12.1482V27.7333H11.5836V25.6H5.31693V13.1851L13.5836 6.68987L19.2981 11.1798C19.9908 10.8508 20.7657 10.6667 21.5836 10.6667C21.7693 10.6667 21.9528 10.6762 22.1336 10.6947ZM21.5836 17.8667C22.6145 17.8667 23.4502 17.0309 23.4502 16C23.4502 14.9691 22.6145 14.1333 21.5836 14.1333C20.5526 14.1333 19.7169 14.9691 19.7169 16C19.7169 17.0309 20.5526 17.8667 21.5836 17.8667ZM21.5836 20C23.7927 20 25.5836 18.2091 25.5836 16C25.5836 13.7909 23.7927 12 21.5836 12C19.3744 12 17.5836 13.7909 17.5836 16C17.5836 18.2091 19.3744 20 21.5836 20ZM26.9906 22.6194C23.5551 21.0578 19.6121 21.0578 16.1766 22.6194L15.3721 22.9851C14.0393 23.5909 13.1836 24.9198 13.1836 26.3838V27.7333H29.9836V26.3838C29.9836 24.9198 29.1279 23.5909 27.7951 22.9851L26.9906 22.6194ZM17.0594 24.5615C19.934 23.2548 23.2332 23.2548 26.1078 24.5615L26.9123 24.9272C27.2284 25.0708 27.4818 25.3093 27.6452 25.6H15.522C15.6854 25.3093 15.9388 25.0708 16.2548 24.9272L17.0594 24.5615Z" fill="#33363D"/>
</g>
</svg>
