<svg width="24" height="24" viewBox="0 0 24 24" fill="none" xmlns="http://www.w3.org/2000/svg">
<g id="icon/download">
<path id="Vector" fill-rule="evenodd" clip-rule="evenodd" d="M12.5759 16.0545C12.4251 16.2114 12.2168 16.3 11.9992 16.3C11.7816 16.3 11.5734 16.2114 11.4226 16.0545L6.42255 10.8545C6.11632 10.536 6.12625 10.0296 6.44473 9.72333C6.76322 9.4171 7.26965 9.42703 7.57589 9.74551L11.1992 13.5138V3.8C11.1992 3.35817 11.5574 3 11.9992 3C12.441 3 12.7992 3.35817 12.7992 3.8V13.5138L16.4226 9.74551C16.7288 9.42703 17.2352 9.4171 17.5537 9.72333C17.8722 10.0296 17.8821 10.536 17.5759 10.8545L12.5759 16.0545ZM3.60078 16.0006C3.60089 15.5588 3.2428 15.2005 2.80098 15.2004C2.35915 15.2003 2.00089 15.5584 2.00078 16.0002L2 19.2002C1.99995 19.4124 2.08421 19.6159 2.23425 19.766C2.38428 19.9161 2.58779 20.0004 2.8 20.0004H21.1992C21.641 20.0004 21.9992 19.6422 21.9992 19.2004V16.0004C21.9992 15.5586 21.641 15.2004 21.1992 15.2004C20.7574 15.2004 20.3992 15.5586 20.3992 16.0004V18.4004H3.6002L3.60078 16.0006Z" fill="#33363D"/>
</g>
</svg>
