<svg width="16" height="16" viewBox="0 0 16 16" fill="none" xmlns="http://www.w3.org/2000/svg">
<g id="icon/ellipsis_horizontal">
<path id="Vector" fill-rule="evenodd" clip-rule="evenodd" d="M2.66699 8.00023C2.66699 7.48476 3.08486 7.06689 3.60033 7.06689C4.11579 7.06689 4.53366 7.48476 4.53366 8.00023C4.53366 8.51569 4.11579 8.93356 3.60033 8.93356C3.08486 8.93356 2.66699 8.51569 2.66699 8.00023ZM7.06803 8.00023C7.06803 7.48476 7.4859 7.06689 8.00137 7.06689C8.51683 7.06689 8.9347 7.48476 8.9347 8.00023C8.9347 8.51569 8.51683 8.93356 8.00137 8.93356C7.4859 8.93356 7.06803 8.51569 7.06803 8.00023ZM12.3998 7.06689C11.8843 7.06689 11.4665 7.48476 11.4665 8.00023C11.4665 8.51569 11.8843 8.93356 12.3998 8.93356C12.9153 8.93356 13.3331 8.51569 13.3331 8.00023C13.3331 7.48476 12.9153 7.06689 12.3998 7.06689Z" fill="#33363D"/>
</g>
</svg>
