<svg width="20" height="20" viewBox="0 0 20 20" fill="none" xmlns="http://www.w3.org/2000/svg">
<g id="icon/expand_more">
<path id="Vector" fill-rule="evenodd" clip-rule="evenodd" d="M1.66797 9.99984C1.66797 14.6022 5.39893 18.3332 10.0013 18.3332C14.6036 18.3332 18.3346 14.6022 18.3346 9.99984C18.3346 5.3975 14.6036 1.6665 10.0013 1.6665C5.39892 1.6665 1.66797 5.3975 1.66797 9.99984ZM10.0013 16.9998C6.13531 16.9998 3.0013 13.8658 3.0013 9.99984C3.0013 6.13388 6.13531 2.99984 10.0013 2.99984C13.8673 2.99984 17.0013 6.13388 17.0013 9.99984C17.0013 13.8658 13.8673 16.9998 10.0013 16.9998ZM8.53055 12.3568C8.2702 12.6171 8.2702 13.0392 8.53055 13.2996C8.7909 13.5599 9.21301 13.5599 9.47336 13.2996L12.3018 10.4712C12.5621 10.2108 12.5621 9.7887 12.3018 9.52835L9.47336 6.69993C9.21301 6.43958 8.7909 6.43958 8.53055 6.69993C8.2702 6.96028 8.2702 7.38239 8.53055 7.64274L10.8876 9.99976L8.53055 12.3568Z" fill="#33363D"/>
</g>
</svg>
