<svg width="16" height="16" viewBox="0 0 16 16" fill="none" xmlns="http://www.w3.org/2000/svg">
<g id="icon/home">
<path id="Vector" d="M2.23327 6.934L7.5666 2.37104C7.81611 2.15757 8.18389 2.15757 8.4334 2.37104L13.7667 6.934C13.9148 7.06066 14 7.24574 14 7.44057V13.4669C14 13.8351 13.7015 14.1336 13.3333 14.1336H10.1667C9.79848 14.1336 9.5 13.8351 9.5 13.4669V10.467C9.5 10.2829 9.35076 10.1337 9.16667 10.1337H6.83333C6.64924 10.1337 6.5 10.2829 6.5 10.467V13.4669C6.5 13.8351 6.20152 14.1336 5.83333 14.1336H2.66667C2.29848 14.1336 2 13.8351 2 13.4669V7.44057C2 7.24574 2.08523 7.06066 2.23327 6.934Z" fill="#33363D"/>
</g>
</svg>
