<svg width="14" height="14" viewBox="0 0 14 14" fill="none" xmlns="http://www.w3.org/2000/svg">
<g id="Vector">
<rect id="Rectangle 414" width="13.3333" height="13.3333" rx="6.66667" transform="matrix(1 0 0 -1 0.333008 13.6666)" fill="#0B78CB"/>
<g id="Vector2">
<path d="M6.93216 5.29397C7.37399 5.29397 7.73216 4.9358 7.73216 4.49397C7.73216 4.05214 7.37399 3.69397 6.93216 3.69397C6.49033 3.69397 6.13216 4.05214 6.13216 4.49397C6.13216 4.9358 6.49033 5.29397 6.93216 5.29397Z" fill="white"/>
<path d="M5.99883 5.95406C5.88837 5.95406 5.79883 6.0436 5.79883 6.15406V6.55406C5.79883 6.66452 5.88837 6.75406 5.99883 6.75406H6.3332C6.44366 6.75406 6.5332 6.8436 6.5332 6.95406V9.39579H5.86602C5.75556 9.39579 5.66602 9.48534 5.66602 9.59579V9.99579C5.66602 10.1062 5.75556 10.1958 5.86602 10.1958H8.13268C8.24314 10.1958 8.33268 10.1062 8.33268 9.99579V9.59579C8.33268 9.48534 8.24314 9.39579 8.13268 9.39579H7.7332V6.15406C7.7332 6.0436 7.64366 5.95406 7.5332 5.95406H5.99883Z" fill="white"/>
</g>
</g>
</svg>
