<svg width="134" height="32" viewBox="0 0 134 32" fill="none" xmlns="http://www.w3.org/2000/svg">
<g id="&#235;&#140;&#128;&#237;&#149;&#156;&#235;&#175;&#188;&#234;&#181;&#173;&#236;&#160;&#149;&#235;&#182;&#128;" clip-path="url(#clip0_9208_62960)">
<path id="Vector" d="M32.183 15.8703C32.183 24.6362 24.9797 31.7405 16.0915 31.7405C7.20335 31.7405 0 24.6362 0 15.8703C0 7.1043 7.20335 0 16.0915 0C24.9797 0 32.183 7.1043 32.183 15.8703Z" fill="white"/>
<path id="Vector_2" d="M23.6575 14.7658C21.0949 13.0494 17.8161 13.7509 16.096 16.328C14.6634 18.4871 12.4943 18.7558 11.6569 18.7558C8.91279 18.7558 7.04637 16.8553 6.48645 14.8902C6.48645 14.8902 6.47636 14.8504 6.47132 14.8355C6.46627 14.8156 6.46123 14.7907 6.45618 14.7708C6.23928 13.9499 6.18379 13.5569 6.18379 12.6863C6.18379 7.98488 11.0768 2.75118 18.1137 2.75118C25.1506 2.75118 29.4534 8.16398 30.5178 11.1739C30.4976 11.1191 30.4774 11.0644 30.4623 11.0147C28.4092 5.12426 22.7495 0.895508 16.0859 0.895508C7.70214 0.895508 0.902344 7.59683 0.902344 15.8703C0.902344 23.2631 6.3099 29.5913 13.8109 29.5913C19.7935 29.5913 23.8138 26.2829 25.655 21.7258C26.6689 19.2334 25.9526 16.3031 23.6575 14.7658Z" fill="#003964"/>
<path id="Vector_3" d="M30.6056 11.4623C29.7178 8.52704 25.5613 2.74609 18.1057 2.74609C11.0638 2.74609 6.17578 7.97979 6.17578 12.6812C6.17578 13.5518 6.23127 13.9448 6.44818 14.7657C6.35738 14.4075 6.31198 14.0493 6.31198 13.6961C6.31198 8.80067 11.2807 5.41269 16.3856 5.41269C23.3014 5.41269 28.9057 10.9399 28.9057 17.7606C28.9057 23.1038 25.7883 27.7355 21.2584 29.9593C27.0998 27.8748 31.2715 22.3575 31.2715 15.8751C31.2715 14.3428 31.0647 12.9896 30.6056 11.4673" fill="#ED1A3B"/>
<path id="Vector_4" d="M41.5362 10.9949H46.0307V9.34814H39.6445V21.3429H46.2173V19.7111H41.5362V10.9949Z" fill="#575756"/>
<path id="Vector_5" d="M51.1527 14.5864H49.1249V8.42236H47.3594V23.3225H49.1249V16.1834H51.1527V23.4071H52.9586V8.42236H51.1527V14.5864Z" fill="#575756"/>
<path id="Vector_6" d="M57.91 18.5518H56.0234V23.1039H68.2711V21.4771H57.91V18.5518Z" fill="#575756"/>
<path id="Vector_7" d="M67.9424 8.42236H66.0508V18.0142H67.9424V14.1337H70.1216V12.5068H67.9424V8.42236Z" fill="#575756"/>
<path id="Vector_8" d="M64.5194 9.54697H60.9279V8.11914H58.9152V9.54697H55.3438V11.1439H64.5194V9.54697Z" fill="#575756"/>
<path id="Vector_9" d="M61.2954 11.7758C60.8666 11.6017 60.4126 11.5171 59.9233 11.5171C59.434 11.5171 58.975 11.6066 58.5512 11.7758C58.1225 11.9499 57.7542 12.1837 57.4364 12.4723C57.1186 12.7608 56.8664 13.1041 56.6798 13.4971C56.4931 13.8902 56.4023 14.3081 56.4023 14.7558C56.4023 15.2036 56.4931 15.6165 56.6798 15.9996C56.8664 16.3826 57.1186 16.7209 57.4364 17.0244C57.7542 17.313 58.1275 17.5468 58.5512 17.711C58.975 17.8801 59.434 17.9647 59.9233 17.9647C60.4126 17.9647 60.8666 17.8801 61.2954 17.711C61.7191 17.5418 62.0974 17.313 62.4304 17.0244C62.7381 16.7209 62.9852 16.3826 63.1668 15.9996C63.3535 15.6165 63.4493 15.2036 63.4493 14.7558C63.4493 14.3081 63.3535 13.8902 63.1668 13.4971C62.9802 13.1041 62.733 12.7608 62.4304 12.4723C62.1025 12.1788 61.7241 11.9499 61.2954 11.7758ZM61.134 15.91C60.8061 16.2284 60.4076 16.3876 59.9435 16.3876C59.4794 16.3876 59.0809 16.2284 58.753 15.91C58.4251 15.5916 58.2587 15.2036 58.2587 14.7409C58.2587 14.2782 58.4251 13.8902 58.753 13.5568C59.0809 13.2235 59.4794 13.0593 59.9435 13.0593C60.4076 13.0593 60.8061 13.2235 61.134 13.5568C61.4618 13.8902 61.6283 14.2832 61.6283 14.7409C61.6283 15.1986 61.4618 15.5866 61.134 15.91Z" fill="#575756"/>
<path id="Vector_10" d="M79.9164 8.94482H72.0977V16.5566H79.9164V8.94482ZM78.0601 14.9596H73.9742V10.5567H78.0601V14.9596Z" fill="#575756"/>
<path id="Vector_11" d="M84.8565 8.42236H82.9648V18.0142H84.8565V8.42236Z" fill="#575756"/>
<path id="Vector_12" d="M74.4144 18.0991H72.543V23.104H84.9925V21.4572H74.4144V18.0991Z" fill="#575756"/>
<path id="Vector_13" d="M98.1897 13.1936H100.081V8.72607H88.3633V10.3728H98.1897V13.1936Z" fill="#575756"/>
<path id="Vector_14" d="M87.2383 16.0145H93.2865V18.2184H88.1917V19.8453H98.1896V23.4422H100.081V18.2184H95.1579V16.0145H101.206V14.3877H87.2383V16.0145Z" fill="#575756"/>
<path id="Vector_15" d="M114.576 11.3974H111.746V12.9944H114.576V16.3674H116.468V8.42236H114.576V11.3974Z" fill="#575756"/>
<path id="Vector_16" d="M114.011 17.6315C113.658 17.2932 113.239 17.0295 112.76 16.8355C112.276 16.6415 111.761 16.542 111.216 16.542C110.672 16.542 110.172 16.6415 109.683 16.8355C109.194 17.0295 108.775 17.2982 108.422 17.6315C108.069 17.9698 107.791 18.3579 107.58 18.8006C107.368 19.2434 107.262 19.716 107.262 20.2185C107.262 20.721 107.368 21.1936 107.58 21.6364C107.791 22.0792 108.069 22.4672 108.422 22.8055C108.775 23.1438 109.194 23.4075 109.683 23.6015C110.167 23.7955 110.682 23.895 111.216 23.895C111.751 23.895 112.276 23.7955 112.76 23.6015C113.239 23.4075 113.658 23.1388 114.011 22.8055C114.364 22.4722 114.647 22.0792 114.853 21.6364C115.065 21.1936 115.166 20.721 115.166 20.2185C115.166 19.716 115.06 19.2384 114.853 18.8006C114.647 18.3579 114.364 17.9698 114.011 17.6315ZM112.694 21.6563C112.281 22.0543 111.781 22.2533 111.201 22.2533C110.621 22.2533 110.147 22.0543 109.739 21.6563C109.33 21.2583 109.123 20.7757 109.123 20.2036C109.123 19.6315 109.33 19.1638 109.739 18.7608C110.147 18.3579 110.636 18.1539 111.201 18.1539C111.766 18.1539 112.276 18.3529 112.694 18.7608C113.108 19.1638 113.315 19.6464 113.315 20.2036C113.315 20.7608 113.108 21.2583 112.694 21.6563Z" fill="#575756"/>
<path id="Vector_17" d="M110.66 16.0692L111.971 14.9896L108.122 10.338H111.82V8.72607H103.134V10.338H106.937L103.078 15.2433L104.445 16.3179L107.527 12.2384L110.66 16.0692Z" fill="#575756"/>
<path id="Vector_18" d="M118.566 17.8901V19.5319H124.594V23.3975H126.486V19.5319H132.534V17.8901H118.566Z" fill="#575756"/>
<path id="Vector_19" d="M131.409 8.6665H129.533V10.562H121.548V8.6665H119.691V15.8703H131.409V8.6665ZM121.548 12.1789H129.533V14.2435H121.548V12.1789Z" fill="#575756"/>
</g>
<defs>
<clipPath id="clip0_9208_62960">
<rect width="133.333" height="31.84" fill="white"/>
</clipPath>
</defs>
</svg>
