<svg width="16" height="16" viewBox="0 0 16 16" fill="none" xmlns="http://www.w3.org/2000/svg">
<g id="icon/panel_open">
<path id="Vector" fill-rule="evenodd" clip-rule="evenodd" d="M5.06667 3.19984C5.06667 2.90529 4.82789 2.6665 4.53333 2.6665C4.23878 2.6665 4 2.90529 4 3.19984V12.8C4 13.0945 4.23878 13.3333 4.53333 13.3333C4.82789 13.3333 5.06667 13.0945 5.06667 12.8V3.19984ZM11.7765 13.1964C11.9955 13.3934 12.3327 13.3757 12.5297 13.1568C12.7268 12.9378 12.7091 12.6006 12.4901 12.4036L7.59724 7.99985L12.4901 3.59627C12.709 3.39922 12.7268 3.062 12.5298 2.84306C12.3327 2.62412 11.9955 2.60637 11.7765 2.80342L6.44321 7.60342C6.33083 7.70456 6.26666 7.84865 6.26666 7.99984C6.26666 8.15103 6.33083 8.29512 6.44321 8.39626L11.7765 13.1964Z" fill="#33363D"/>
</g>
</svg>
