<svg width="16" height="16" viewBox="0 0 16 16" fill="none" xmlns="http://www.w3.org/2000/svg">
<g id="icon/panel_close">
<path id="Vector" fill-rule="evenodd" clip-rule="evenodd" d="M4.22216 13.1964C4.00322 13.3934 3.666 13.3757 3.46895 13.1568C3.2719 12.9378 3.28965 12.6006 3.50858 12.4036L8.40146 7.99985L3.50859 3.59627C3.28965 3.39922 3.2719 3.062 3.46895 2.84306C3.66599 2.62412 4.00321 2.60637 4.22215 2.80342L9.55548 7.60342C9.66786 7.70456 9.73203 7.84865 9.73204 7.99984C9.73204 8.15103 9.66787 8.29512 9.55549 8.39626L4.22216 13.1964ZM10.932 3.19984C10.932 2.90529 11.1708 2.6665 11.4654 2.6665C11.7599 2.6665 11.9987 2.90529 11.9987 3.19984V12.8C11.9987 13.0945 11.7599 13.3333 11.4654 13.3333C11.1708 13.3333 10.932 13.0945 10.932 12.8V3.19984Z" fill="#33363D"/>
</g>
</svg>
