<svg width="200" height="48" viewBox="0 0 200 48" fill="none" xmlns="http://www.w3.org/2000/svg">
<rect width="200" height="48" fill="#D0D6E1"/>
<g id="&#236;&#132;&#156;&#235;&#185;&#132;&#236;&#138;&#164;&#237;&#140;&#168;&#237;&#132;&#180;_&#235;&#176;&#169;&#235;&#172;&#184;">
<rect width="15360" height="7697" transform="translate(-760 -4497)" fill="#B3BAC6"/>
<g id="&#235;&#176;&#169;&#235;&#172;&#184;&#236;&#156;&#160;&#237;&#152;&#149;1-&#237;&#153;&#141;&#235;&#179;&#180;&#234;&#176;&#149;&#237;&#153;&#148;" clip-path="url(#clip0_2499_33230)">
<rect width="1920" height="4437" transform="translate(-360 -4097)" fill="white"/>
<g id="footer__pc">
<g id="surface">
<rect width="1920" height="380" transform="translate(-360 -40)" fill="#F4F5F6"/>
<g id="fixed-con">
<g id="logo">
<g id="logo/&#235;&#140;&#128;&#237;&#149;&#156;&#235;&#175;&#188;&#234;&#181;&#173;&#236;&#160;&#149;&#235;&#182;&#128;">
<g id="&#235;&#140;&#128;&#237;&#149;&#156;&#235;&#175;&#188;&#234;&#181;&#173;&#236;&#160;&#149;&#235;&#182;&#128;" clip-path="url(#clip1_2499_33230)">
<path id="Vector" d="M48.2745 23.8054C48.2745 36.9543 37.4695 47.6108 24.1373 47.6108C10.805 47.6108 0 36.9543 0 23.8054C0 10.6564 10.805 0 24.1373 0C37.4695 0 48.2745 10.6564 48.2745 23.8054Z" fill="white"/>
<path id="Vector_2" d="M35.4881 22.1487C31.6443 19.5742 26.7261 20.6264 24.1459 24.4919C21.997 27.7307 18.7434 28.1336 17.4873 28.1336C13.3711 28.1336 10.5715 25.283 9.73163 22.3353C9.73163 22.3353 9.7165 22.2756 9.70893 22.2532C9.70136 22.2233 9.6938 22.186 9.68623 22.1562C9.36087 20.9249 9.27764 20.3353 9.27764 19.0294C9.27764 11.9773 16.6172 4.12677 27.1725 4.12677C37.7278 4.12677 44.1821 12.246 45.7786 16.7608C45.7484 16.6787 45.7181 16.5966 45.6954 16.522C42.6158 7.68639 34.1262 1.34326 24.1308 1.34326C11.5552 1.34326 1.35547 11.3953 1.35547 23.8054C1.35547 34.8947 9.4668 44.387 20.7182 44.387C29.6922 44.387 35.7227 39.4244 38.4845 32.5887C40.0054 28.85 38.9309 24.4546 35.4881 22.1487Z" fill="#003964"/>
<path id="Vector_3" d="M45.9065 17.1934C44.5748 12.7906 38.3399 4.11914 27.1566 4.11914C16.5937 4.11914 9.26172 11.9697 9.26172 19.0218C9.26172 20.3277 9.34495 20.9172 9.67031 22.1485C9.53411 21.6112 9.46602 21.0739 9.46602 20.5441C9.46602 13.201 16.9191 8.11904 24.5764 8.11904C34.9501 8.11904 43.3565 16.4099 43.3565 26.641C43.3565 34.6557 38.6804 41.6033 31.8857 44.939C40.6477 41.8122 46.9053 33.5363 46.9053 23.8127C46.9053 21.5142 46.595 19.4844 45.9065 17.2009" fill="#ED1A3B"/>
<path id="Vector_4" d="M62.3023 16.4921H69.0441V14.022H59.4648V32.0141H69.3241V29.5664H62.3023V16.4921Z" fill="#575756"/>
<path id="Vector_5" d="M76.733 21.8798H73.6913V12.6338H71.043V34.984H73.6913V24.2753H76.733V35.1108H79.4418V12.6338H76.733V21.8798Z" fill="#575756"/>
<path id="Vector_6" d="M86.865 27.8276H84.0352V34.6558H102.407V32.2156H86.865V27.8276Z" fill="#575756"/>
<path id="Vector_7" d="M101.916 12.6338H99.0781V27.0215H101.916V21.2007H105.184V18.7605H101.916V12.6338Z" fill="#575756"/>
<path id="Vector_8" d="M96.7753 14.3204H91.3879V12.1787H88.3688V14.3204H83.0117V16.7159H96.7753V14.3204Z" fill="#575756"/>
<path id="Vector_9" d="M91.9411 17.6639C91.298 17.4027 90.617 17.2759 89.883 17.2759C89.1491 17.2759 88.4605 17.4102 87.8249 17.6639C87.1818 17.9251 86.6294 18.2759 86.1527 18.7087C85.676 19.1415 85.2977 19.6564 85.0177 20.246C84.7378 20.8355 84.6016 21.4623 84.6016 22.134C84.6016 22.8056 84.7378 23.425 85.0177 23.9996C85.2977 24.5742 85.676 25.0817 86.1527 25.5369C86.6294 25.9697 87.1893 26.3204 87.8249 26.5667C88.4605 26.8204 89.1491 26.9473 89.883 26.9473C90.617 26.9473 91.298 26.8204 91.9411 26.5667C92.5767 26.313 93.1442 25.9697 93.6436 25.5369C94.1051 25.0817 94.4759 24.5742 94.7483 23.9996C95.0283 23.425 95.172 22.8056 95.172 22.134C95.172 21.4623 95.0283 20.8355 94.7483 20.246C94.4683 19.6564 94.0976 19.1415 93.6436 18.7087C93.1518 18.2684 92.5843 17.9251 91.9411 17.6639ZM91.699 23.8653C91.2072 24.3429 90.6094 24.5817 89.9133 24.5817C89.2172 24.5817 88.6194 24.3429 88.1276 23.8653C87.6357 23.3877 87.386 22.8056 87.386 22.1116C87.386 21.4176 87.6357 20.8355 88.1276 20.3355C88.6194 19.8355 89.2172 19.5893 89.9133 19.5893C90.6094 19.5893 91.2072 19.8355 91.699 20.3355C92.1908 20.8355 92.4405 21.425 92.4405 22.1116C92.4405 22.7981 92.1908 23.3802 91.699 23.8653Z" fill="#575756"/>
<path id="Vector_10" d="M119.877 13.4175H108.148V24.8351H119.877V13.4175ZM117.092 22.4396H110.963V15.8353H117.092V22.4396Z" fill="#575756"/>
<path id="Vector_11" d="M127.283 12.6338H124.445V27.0215H127.283V12.6338Z" fill="#575756"/>
<path id="Vector_12" d="M111.62 27.1484H108.812V34.6557H127.487V32.1856H111.62V27.1484Z" fill="#575756"/>
<path id="Vector_13" d="M147.283 19.7907H150.12V13.0894H132.543V15.5594H147.283V19.7907Z" fill="#575756"/>
<path id="Vector_14" d="M130.855 24.0218H139.928V27.3277H132.286V29.7679H147.282V35.1633H150.12V27.3277H142.735V24.0218H151.807V21.5815H130.855V24.0218Z" fill="#575756"/>
<path id="Vector_15" d="M171.866 17.0964H167.621V19.4918H171.866V24.5514H174.703V12.6338H171.866V17.0964Z" fill="#575756"/>
<path id="Vector_16" d="M171.019 26.4473C170.489 25.9398 169.861 25.5443 169.142 25.2533C168.416 24.9622 167.644 24.813 166.827 24.813C166.01 24.813 165.26 24.9622 164.526 25.2533C163.793 25.5443 163.164 25.9473 162.635 26.4473C162.105 26.9547 161.689 27.5368 161.371 28.201C161.053 28.8651 160.895 29.5741 160.895 30.3278C160.895 31.0815 161.053 31.7904 161.371 32.4546C161.689 33.1188 162.105 33.7008 162.635 34.2083C163.164 34.7157 163.793 35.1112 164.526 35.4023C165.253 35.6933 166.025 35.8426 166.827 35.8426C167.629 35.8426 168.416 35.6933 169.142 35.4023C169.861 35.1112 170.489 34.7083 171.019 34.2083C171.548 33.7083 171.972 33.1188 172.282 32.4546C172.6 31.7904 172.751 31.0815 172.751 30.3278C172.751 29.5741 172.592 28.8577 172.282 28.201C171.972 27.5368 171.548 26.9547 171.019 26.4473ZM169.044 32.4844C168.423 33.0814 167.674 33.3799 166.804 33.3799C165.934 33.3799 165.223 33.0814 164.61 32.4844C163.997 31.8874 163.687 31.1636 163.687 30.3054C163.687 29.4472 163.997 28.7457 164.61 28.1413C165.223 27.5368 165.957 27.2308 166.804 27.2308C167.651 27.2308 168.416 27.5293 169.044 28.1413C169.664 28.7457 169.974 29.4696 169.974 30.3054C169.974 31.1412 169.664 31.8874 169.044 32.4844Z" fill="#575756"/>
<path id="Vector_17" d="M165.986 24.104L167.953 22.4846L162.18 15.5072H167.726V13.0894H154.697V15.5072H160.402L154.613 22.8652L156.664 24.4771L161.287 18.3579L165.986 24.104Z" fill="#575756"/>
<path id="Vector_18" d="M177.852 26.835V29.2976H186.894V35.0959H189.731V29.2976H198.803V26.835H177.852Z" fill="#575756"/>
<path id="Vector_19" d="M197.116 12.9995H194.301V15.8427H182.324V12.9995H179.539V23.8052H197.116V12.9995ZM182.324 18.268H194.301V21.365H182.324V18.268Z" fill="#575756"/>
</g>
</g>
</g>
</g>
</g>
</g>
</g>
</g>
<defs>
<clipPath id="clip0_2499_33230">
<rect width="1920" height="4437" fill="white" transform="translate(-360 -4097)"/>
</clipPath>
<clipPath id="clip1_2499_33230">
<rect width="200" height="47.76" fill="white"/>
</clipPath>
</defs>
</svg>
